<svg xmlns="http://www.w3.org/2000/svg" width="800" height="340" viewBox="0 0 800 340" role="img" aria-label="Star history of owner/repo">
<style>text{font-family:-apple-system,BlinkMacSystemFont,"Segoe UI",Helvetica,Arial,sans-serif}</style>
<text x="64" y="28" font-size="15" font-weight="600" fill="#f0f6fc">owner/repo</text>
<text x="776" y="28" font-size="14" text-anchor="end" fill="#9198a1">&#9733; 1,528</text>
<line x1="64" y1="288.0" x2="776" y2="288.0" stroke="#21262d" stroke-width="1"/>
<text x="56" y="292.0" font-size="12" text-anchor="end" fill="#767e89">0</text>
<line x1="64" y1="230.0" x2="776" y2="230.0" stroke="#21262d" stroke-width="1"/>
<text x="56" y="234.0" font-size="12" text-anchor="end" fill="#767e89">500</text>
<line x1="64" y1="172.0" x2="776" y2="172.0" stroke="#21262d" stroke-width="1"/>
<text x="56" y="176.0" font-size="12" text-anchor="end" fill="#767e89">1,000</text>
<line x1="64" y1="114.0" x2="776" y2="114.0" stroke="#21262d" stroke-width="1"/>
<text x="56" y="118.0" font-size="12" text-anchor="end" fill="#767e89">1,500</text>
<line x1="64" y1="56.0" x2="776" y2="56.0" stroke="#21262d" stroke-width="1"/>
<text x="56" y="60.0" font-size="12" text-anchor="end" fill="#767e89">2,000</text>
<line x1="141.9" y1="56" x2="141.9" y2="288" stroke="#21262d" stroke-width="1"/>
<text x="141.9" y="308" font-size="12" text-anchor="middle" fill="#767e89">2022</text>
<line x1="279.3" y1="56" x2="279.3" y2="288" stroke="#21262d" stroke-width="1"/>
<text x="279.3" y="308" font-size="12" text-anchor="middle" fill="#767e89">2023</text>
<line x1="416.6" y1="56" x2="416.6" y2="288" stroke="#21262d" stroke-width="1"/>
<text x="416.6" y="308" font-size="12" text-anchor="middle" fill="#767e89">2024</text>
<line x1="554.3" y1="56" x2="554.3" y2="288" stroke="#21262d" stroke-width="1"/>
<text x="554.3" y="308" font-size="12" text-anchor="middle" fill="#767e89">2025</text>
<line x1="691.7" y1="56" x2="691.7" y2="288" stroke="#21262d" stroke-width="1"/>
<text x="691.7" y="308" font-size="12" text-anchor="middle" fill="#767e89">2026</text>
<line x1="64" y1="288" x2="776" y2="288" stroke="#3d444d" stroke-width="1"/>
<polygon points="64.0,288 64.0,287.8 164.1,269.4 336.1,230.0 542.7,169.7 776.0,110.8 776.0,288" fill="#3987e5" opacity="0.14"/>
<polyline points="64.0,287.8 164.1,269.4 336.1,230.0 542.7,169.7 776.0,110.8" fill="none" stroke="#3987e5" stroke-width="2" stroke-linejoin="round" stroke-linecap="round"/>
<circle cx="776.0" cy="110.8" r="3.5" fill="#3987e5"/>
<text x="776" y="330" font-size="11" text-anchor="end" fill="#767e89">updated through 2026-08-13</text>
</svg>
